<svg width="34" height="32" viewBox="0 0 34 32" fill="none" xmlns="http://www.w3.org/2000/svg">
<path d="M22.8047 12C24.4615 12 25.8047 10.6569 25.8047 9C25.8047 7.34315 24.4615 6 22.8047 6C21.1478 6 19.8047 7.34315 19.8047 9C19.8047 10.6569 21.1478 12 22.8047 12Z" stroke="#2E2E30" stroke-linecap="round" stroke-linejoin="round"/>
<path d="M10.8047 19C12.4615 19 13.8047 17.6569 13.8047 16C13.8047 14.3431 12.4615 13 10.8047 13C9.14783 13 7.80469 14.3431 7.80469 16C7.80469 17.6569 9.14783 19 10.8047 19Z" stroke="#2E2E30" stroke-linecap="round" stroke-linejoin="round"/>
<path d="M22.8047 26C24.4615 26 25.8047 24.6569 25.8047 23C25.8047 21.3431 24.4615 20 22.8047 20C21.1478 20 19.8047 21.3431 19.8047 23C19.8047 24.6569 21.1478 26 22.8047 26Z" stroke="#2E2E30" stroke-linecap="round" stroke-linejoin="round"/>
<path d="M13.8047 18L19.8047 22" stroke="#2E2E30" stroke-linecap="round" stroke-linejoin="round"/>
<path d="M19.8047 10L13.8047 14" stroke="#2E2E30" stroke-linecap="round" stroke-linejoin="round"/>
</svg>
