<svg xmlns="http://www.w3.org/2000/svg" width="48" height="48" fill="none" viewBox="0 0 48 48"><g clip-path="url(#a)"><path fill="#EE2A27" d="M24 0C10.7 0 0 10.7 0 24s10.7 24 24 24 24-10.7 24-24S37.3 0 24 0Z"/><path fill="#fff" d="M16.4 8.3c1.6 0 3 1.4 3 3 0 1.7-1.3 3.1-3 3.1-1.6 0-3-1.4-3-3.1 0-1.6 1.3-3 3-3Zm20.9 16.6c-1.9 0-3-1.6-2.8-3 .1-.7.4-1.5.1-2.3-.4-.9-1.4-.8-2.5-.3-1.5.7-2.7 2.7-2.7 5v7.8c.1 2.1 1.2 3.2 3.1 3.2v.8H10.9v-.8c1.8 0 2.9-1.2 3.1-3.2l.1-1.3v-6.9c0-1-.3-1.9-.9-2.4-.6-.5-1.3-.8-2.2-.7V20s7.5-2.6 7.5-2.7c.1 0 .1 0 .1.1v14.7c.1 2.1 1.2 3.2 3.1 3.2 1.8 0 2.9-1.1 3.1-3.2l.1-1.3v-6.9c0-1-.3-1.9-.9-2.4-.6-.5-1.3-.8-2.2-.7V20l6.3-2.2.1.1c.2.3.9 1.3 1.2 2.6.7-.7 1.6-1.5 2.6-2.1.9-.5 1.9-.9 3-.9 1.5 0 2.9.6 3.9 1.5.8.7 1.3 1.9 1.3 2.9 0 1.4-1 3-2.9 3Z"/></g><defs><clipPath id="a"><path fill="#fff" d="M0 0h48v48H0z"/></clipPath></defs></svg>